<svg width="197" height="46" viewBox="0 0 197 46" fill="none" xmlns="http://www.w3.org/2000/svg">
<path fill-rule="evenodd" clip-rule="evenodd" d="M-6.10352e-05 41.8542C-6.10352e-05 44.3689 1.64413 45.9993 4.17869 45.9993L16.388 45.9996C23.6715 45.9996 29.6296 43.5549 33.6805 39.2753H-6.10352e-05V41.8542ZM16.388 -0.000136212L4.17869 -0.000366211C1.64413 -0.000366211 -6.10352e-05 1.63055 -6.10352e-05 4.1449V6.72388H33.6805C29.6296 2.44429 23.6715 -0.000136212 16.388 -0.000136212ZM27.0431 29.554C27.0431 31.5881 28.3789 32.9078 30.4384 32.9078H37.7544C38.5836 30.8664 39.1408 28.6221 39.3999 26.2002H30.4384C28.3789 26.2002 27.0431 27.5197 27.0431 29.554ZM16.9025 16.4618C16.9025 18.4961 18.2383 19.8156 20.2978 19.8156H39.3999C39.1408 17.3938 38.5836 15.1494 37.7544 13.108H20.2978C18.2383 13.108 16.9025 14.4275 16.9025 16.4618ZM20.2955 29.554C20.2955 27.5197 18.9597 26.2002 16.9002 26.2002H-6.10352e-05V32.9078H16.9002C18.9597 32.9078 20.2955 31.5884 20.2955 29.554ZM10.1549 16.4618C10.1549 14.4275 8.8191 13.108 6.75965 13.108H-6.10352e-05V19.8156H6.75965C8.8191 19.8156 10.1549 18.4961 10.1549 16.4618Z" fill="#0062FF"/>
<path fill-rule="evenodd" clip-rule="evenodd" d="M85.9203 22.3071C86.4643 19.682 88.2218 18.3473 90.5317 18.3473C92.8217 18.3473 94.4962 19.7419 95.0302 22.3071H85.9203ZM90.6573 13.7997C84.7759 13.7997 81.1176 18.4728 81.1176 24.1889C81.1176 30.1089 85.0267 34.4997 90.8366 34.4997C94.8435 34.4997 97.2742 32.6568 98.7784 30.3365L95.0379 27.9601C94.0974 29.2377 92.5928 29.9127 90.9801 29.9127C88.3416 29.9127 86.575 28.6842 85.9727 26.2275H95.8453C95.8443 26.2307 95.8437 26.2338 95.8427 26.2373L99.4418 26.2583C99.5783 25.6118 99.6588 24.9438 99.6588 24.1889C99.6588 19.2099 96.5747 13.7997 90.6573 13.7997Z" fill="#0062FF"/>
<path fill-rule="evenodd" clip-rule="evenodd" d="M66.0529 29.8997C62.4341 29.8997 60.2587 27.3251 60.2587 24.1495C60.2587 20.9739 62.476 18.3997 66.0529 18.3997C69.6298 18.3997 71.847 20.9739 71.847 24.1495C71.847 27.3251 69.6716 29.8997 66.0529 29.8997ZM71.4527 16.8389C70.0077 15.1166 67.9562 14.0608 65.4094 14.0608C59.7173 14.0608 55.6234 18.6364 55.6234 24.2802C55.6234 29.9243 59.6784 34.4996 65.4094 34.4996C67.9562 34.4996 70.0077 33.4439 71.4527 31.7216V33.9965H76.4823V6.89966H71.4527V16.8389Z" fill="#0062FF"/>
<path fill-rule="evenodd" clip-rule="evenodd" d="M115.04 23.81C116.405 24.7566 117.271 26.176 117.271 28.0491C117.271 31.8347 114.699 34.4613 109.892 34.4613C105.368 34.4613 102.942 32.1606 101.976 29.8375L106.129 27.4312C106.129 27.4312 106.688 29.9419 109.818 29.9419C111.755 29.9419 112.352 29.092 112.352 28.3415C112.352 27.9937 112.24 27.3539 110.861 26.813C108.092 25.727 102.738 25.2398 102.738 20.2852C102.738 16.2297 105.941 14.0667 109.892 14.0667C113.587 14.0667 115.96 16.3481 116.861 18.1232L112.799 20.4785C112.799 20.4785 112.016 18.5085 109.929 18.5085C107.843 18.5085 107.657 19.706 107.657 20.0535C107.657 21.0675 108.698 21.4838 110.936 22.1395C112.26 22.5276 113.621 22.8802 115.044 23.8063C115.042 23.8076 115.041 23.8088 115.04 23.81ZM197 19.3969H192.789V27.431C192.789 29.9419 195.248 29.401 197 29.401V33.9201C197 33.9201 196.077 34.0747 194.466 34.0747C190.889 34.0747 187.982 32.9934 187.982 27.431V19.3969H184.74V14.6072H187.982V9.19958H192.789V14.6072H197V19.3969ZM129.221 29.5942C131.216 29.5942 132.75 28.6079 133.525 26.9899L137.692 29.4664C136.059 32.4344 133.017 34.4996 129.221 34.4996C123.464 34.4996 119.439 29.9342 119.439 24.3025C119.439 18.6706 123.501 14.1052 129.221 14.1052C132.961 14.1052 135.992 16.1366 137.642 19.0653L133.484 21.5983C132.694 20.0015 131.173 19.0107 129.221 19.0107C126.312 19.0107 124.246 21.3799 124.246 24.3025C124.246 27.2249 126.293 29.5942 129.221 29.5942Z" fill="#0062FF"/>
<path fill-rule="evenodd" clip-rule="evenodd" d="M173.411 29.5415C170.279 29.5415 168.397 27.1188 168.397 24.1304C168.397 21.1421 170.315 18.7196 173.411 18.7196C176.506 18.7196 178.424 21.1421 178.424 24.1304C178.424 27.1188 176.542 29.5415 173.411 29.5415ZM174.008 13.9991C179.293 13.9991 183.094 18.5352 183.094 24.1304C183.094 29.7259 179.329 34.2616 174.008 34.2616C171.643 34.2616 169.738 33.2151 168.397 31.5076V41.3996H163.727V14.5366H168.397V16.7532C169.738 15.0458 171.643 13.9991 174.008 13.9991ZM154.749 33.7627V14.5748H159.419V33.7627H154.749ZM146.046 17.8524C146.947 15.5272 148.784 14.1973 151.549 14.1913V19.7174C148.307 19.3923 145.965 21.1011 146.05 25.1378C146.049 25.135 146.047 25.1319 146.046 25.1288V33.7627H141.376V14.575H146.046V17.8524ZM154.749 12.0141V6.89966H159.573V12.0141H154.749Z" fill="#0062FF"/>
</svg>
