<svg width="72" height="72" viewBox="0 0 72 72" fill="none" xmlns="http://www.w3.org/2000/svg">
<circle cx="35.5192" cy="36.4506" r="35.5193" fill="#E9F6EE"/>
<g clip-path="url(#clip0_2_210)">
<path d="M53.0635 26.0042L55.0035 24.0645C55.3258 23.7419 55.432 23.2615 55.2755 22.8334C55.1189 22.4049 54.728 22.1064 54.2733 22.068L50.6743 21.7643L50.3707 18.1654C50.3325 17.711 50.0338 17.3201 49.6056 17.1635C49.1774 17.0067 48.6971 17.1129 48.3745 17.4354L46.4345 19.3751C43.2973 17.4516 39.7103 16.4387 35.9999 16.4387C30.6578 16.4387 25.6353 18.5191 21.8578 22.2966C18.0803 26.074 15.9999 31.0966 15.9999 36.4387C15.9999 41.7808 18.0803 46.8034 21.8578 50.5809C25.6353 54.3583 30.6578 56.4387 35.9999 56.4387C41.342 56.4387 46.3646 54.3583 50.1421 50.5809C53.9196 46.8034 55.9999 41.7808 55.9999 36.4387C55.9999 32.7284 54.9871 29.1417 53.0635 26.0042ZM48.4218 22.9475C48.47 23.517 48.9217 23.9686 49.4911 24.0168L51.5618 24.1914L48.759 26.9941L45.7024 26.7363L45.4445 23.6796L48.2473 20.8769L48.4218 22.9475ZM39.9843 36.4387C39.9843 38.6357 38.1969 40.4231 35.9999 40.4231C33.803 40.4231 32.0156 38.6357 32.0156 36.4387C32.0156 34.2418 33.803 32.4543 35.9999 32.4543C36.6729 32.4543 37.3067 32.6225 37.863 32.9182L35.1714 35.6102C34.7136 36.0676 34.7136 36.8095 35.1714 37.2673C35.4 37.4962 35.7 37.6106 35.9999 37.6106C36.2999 37.6106 36.5999 37.4962 36.8285 37.2673L39.5204 34.5756C39.8162 35.132 39.9843 35.7658 39.9843 36.4387ZM39.5665 31.2147C38.5503 30.5189 37.322 30.1106 35.9999 30.1106C32.5106 30.1106 29.6718 32.9493 29.6718 36.4387C29.6718 39.9281 32.5106 42.7668 35.9999 42.7668C39.4893 42.7668 42.3281 39.9281 42.3281 36.4387C42.3281 35.1167 41.9197 33.8884 41.2239 32.8721L44.5699 29.5262C46.0985 31.4177 47.0156 33.8231 47.0156 36.4387C47.0156 42.5126 42.0739 47.4543 35.9999 47.4543C29.926 47.4543 24.9843 42.5126 24.9843 36.4387C24.9843 30.3648 29.926 25.4231 35.9999 25.4231C38.6156 25.4231 41.021 26.3401 42.9125 27.8688L39.5665 31.2147ZM48.4847 48.9235C45.15 52.2584 40.7161 54.095 35.9999 54.095C31.2838 54.095 26.8499 52.2584 23.5152 48.9235C20.1802 45.5888 18.3437 41.1549 18.3437 36.4387C18.3437 31.7225 20.1802 27.2886 23.5152 23.954C26.8499 20.619 31.2838 18.7825 35.9999 18.7825C39.0853 18.7825 42.0739 19.575 44.7243 21.0853L43.4026 22.407C43.189 22.6207 43.0672 22.9069 43.0596 23.2057C43.0587 23.2484 43.0599 23.2911 43.0632 23.3342L43.221 25.204C41.1376 23.86 38.6583 23.0793 35.9999 23.0793C28.6336 23.0793 22.6406 29.0724 22.6406 36.4387C22.6406 43.8051 28.6336 49.7981 35.9999 49.7981C43.3663 49.7981 49.3593 43.8051 49.3593 36.4387C49.3593 33.7803 48.5787 31.3011 47.2347 29.2177L49.1045 29.3754C49.1375 29.3779 49.1704 29.3794 49.2031 29.3794C49.2086 29.3794 49.2144 29.3788 49.2198 29.3785C49.2354 29.3785 49.2507 29.3773 49.2662 29.3763C49.2916 29.3748 49.3172 29.3733 49.3422 29.3702C49.3578 29.3681 49.3734 29.3657 49.3889 29.3632C49.4136 29.3593 49.438 29.3547 49.4625 29.3492C49.478 29.3455 49.4933 29.3416 49.5085 29.3376C49.5323 29.3312 49.5558 29.3239 49.5793 29.3159C49.5946 29.3107 49.6096 29.3055 49.6245 29.2997C49.6474 29.2909 49.67 29.2811 49.6926 29.2704C49.7069 29.264 49.7213 29.2576 49.7356 29.2503C49.7582 29.2387 49.7802 29.2259 49.8018 29.2131C49.8149 29.2051 49.8281 29.1978 49.8409 29.1899C49.8641 29.1746 49.8864 29.1581 49.9086 29.1414C49.919 29.1334 49.9297 29.1264 49.9398 29.1182C49.9715 29.0925 50.0023 29.0654 50.0316 29.0361L51.3533 27.7144C52.8636 30.3648 53.6562 33.3534 53.6562 36.4387C53.6562 41.1549 51.8196 45.5888 48.4847 48.9235Z" fill="#34D27B"/>
</g>
<defs>
<clipPath id="clip0_2_210">
<rect width="40" height="40" fill="white" transform="translate(15.9999 16.4387)"/>
</clipPath>
</defs>
</svg>
