<svg width="98" height="46" viewBox="0 0 98 46" fill="none" xmlns="http://www.w3.org/2000/svg">
<path d="M10.6545 3.50356V16.4583C10.6545 16.4583 15.2763 16.4583 17.7498 16.2729C19.695 15.9365 20.053 15.7511 20.4111 13.8298L21.1272 11.0159H23.2427L22.8846 17.1656L23.0724 23.4661H20.9394L20.4111 21.0058C19.8827 19.2549 19.1667 18.8992 17.7498 18.731C15.9771 18.5456 10.6545 18.5456 10.6545 18.5456V29.4109C10.6545 31.5003 11.7286 32.3929 14.2022 32.3929H21.6555C23.9587 32.3929 26.2598 32.2076 27.6941 28.8891L29.6219 24.6779H31.4121C31.2243 25.5534 30.338 33.2685 30.1677 35.0044C30.1677 35.0044 23.4304 34.836 20.5988 34.836H7.82296L0.199318 35.0044V33.1001L2.67285 32.5612C4.46304 32.2076 4.99137 31.6857 4.99137 30.2863C4.99137 30.2863 5.17912 25.5534 5.17912 17.6679C5.17912 9.80195 4.99137 5.06682 4.99137 5.06682C4.99137 3.49921 4.46304 3.1456 2.67285 2.79198L0.199318 2.27448V0.353259L7.65267 0.504196H21.8432C24.6748 0.504196 29.4494 -0.000366211 29.4494 -0.000366211C29.4494 -0.000366211 29.2791 2.96448 29.0914 9.97231H27.1462L26.4301 7.51201C25.7315 4.36174 24.6726 2.79413 22.7121 2.79413H11.5583C10.6545 2.79629 10.6545 2.96448 10.6545 3.50356ZM39.3762 4.8857H41.5092V12.2471L48.7923 11.8935L48.4343 15.2292L41.3388 14.6902V27.6622C41.3388 31.3343 42.5834 32.7488 44.7164 32.7488C46.6441 32.7488 48.0762 31.6879 48.6044 30.8124L49.661 32.0415C48.6044 34.4846 45.6026 35.7135 42.7535 35.7135C39.2235 35.7135 36.357 33.6244 36.357 29.5985V14.8734H32.126V13.1226C35.6758 12.7689 38.3196 10.6623 39.3762 4.8857ZM54.6409 27.4746L56.0556 30.8103C56.5841 32.2076 57.8283 33.6244 60.66 33.6244C63.6792 33.6244 64.9238 32.0415 64.9238 30.1203C64.9238 24.1561 53.0364 25.9091 53.0364 17.8556C53.0364 13.308 56.7542 11.1841 61.5462 11.1841C63.6792 11.1841 66.8689 11.5377 68.4712 12.245C68.1132 13.9959 67.9256 16.2707 67.9256 18.0237L66.1681 18.1919L64.9238 14.688C64.5658 13.8298 63.1336 13.1204 61.3761 13.1204C59.243 13.1204 57.1123 13.9959 57.1123 16.2707C57.1123 21.6958 69.3577 20.4819 69.3577 28.5354C69.3577 33.1001 65.2818 35.5433 60.302 35.5433C56.5841 35.5433 52.8485 34.1288 52.8485 34.1288C53.2065 32.0393 53.0364 29.7667 52.8485 27.4746H54.6409ZM68.4735 44.2868C69.002 42.3656 69.36 39.9248 69.718 37.6327L71.6632 37.4644L72.3792 41.1367C72.5494 42.012 73.0779 42.7193 74.4948 42.7193C76.798 42.7193 79.8172 41.322 82.6641 36.4189C81.4024 33.4365 77.6842 23.8176 74.3069 16.4561C73.4207 14.5198 73.2502 14.3495 72.0212 13.9959L71.1172 13.6595V11.8914L76.4551 12.0768L83.0046 11.7232V13.4762L81.4024 13.8298C80.1578 13.998 79.6448 14.688 79.6448 15.3974C79.6448 15.5829 79.6448 15.7511 79.815 16.1047C80.1555 17.1656 83.0046 25.0337 85.1377 30.2885C86.8952 26.6164 90.2725 18.3795 90.8007 16.9801C90.9886 16.2729 91.1587 16.1047 91.1587 15.5829C91.1587 14.6902 90.6305 14.1684 89.4015 13.832L88.1395 13.4762V11.7253L93.1193 11.8935L97.7237 11.7253V13.4762L96.8372 14.1662C95.0645 14.8734 94.8769 15.0416 94.176 16.4561L86.3819 34.4801C81.7604 44.8238 76.9681 45.6994 73.606 45.6994C71.4753 45.7013 69.873 45.1624 68.4735 44.2868Z" fill="#FB6F20"/>
</svg>
