<svg width="153" height="46" viewBox="0 0 153 46" fill="none" xmlns="http://www.w3.org/2000/svg">
<path d="M-6.10352e-05 32.538V0.673828H5.64387V32.538H-6.10352e-05Z" fill="#3D3D3F"/>
<path d="M20.0911 9.42163C12.8548 9.42163 7.8472 14.9394 7.8472 21.2551C7.8472 28.3037 13.2949 33.1595 20.1473 33.1595C26.6506 33.1595 32.2939 28.3931 32.2939 21.2399C32.2939 15.2247 27.6177 9.42163 20.0911 9.42163ZM20.0246 14.8212C23.8115 14.8212 26.599 17.7447 26.599 21.2754C26.599 25.0189 23.5258 27.7498 20.1269 27.7498C16.1106 27.7498 13.5832 24.5929 13.5832 21.2855C13.5832 17.6602 16.4367 14.8212 20.0246 14.8212Z" fill="#3D3D3F"/>
<path d="M46.4743 9.42163C39.2382 9.42163 34.2304 14.9394 34.2304 21.2551C34.2304 28.3037 39.6782 33.1595 46.5306 33.1595C53.0339 33.1595 58.6772 28.3931 58.6772 21.2399C58.6772 17.0275 56.838 15.1585 56.838 15.1585L58.4021 14.6265V10.0837H50.3862C50.3862 10.0837 48.6485 9.42163 46.4743 9.42163ZM46.4079 14.8212C50.1949 14.8212 52.9824 17.7447 52.9824 21.2754C52.9824 25.0189 49.9092 27.7498 46.5103 27.7498C42.494 27.7498 39.9665 24.5929 39.9665 21.2855C39.9665 17.6602 42.82 14.8212 46.4079 14.8212Z" fill="#3D3D3F"/>
<path d="M52.9425 34.0952C52.9425 37.8388 49.8693 40.5902 46.4704 40.5902C42.4541 40.5902 39.9165 37.4027 39.9165 34.0952H34.1908C34.1908 41.1441 39.6386 45.9996 46.4907 45.9996C52.9943 45.9996 58.6376 41.2485 58.6376 34.0952H52.9425Z" fill="#3D3D3F"/>
<path d="M60.938 32.5379V10.0836H66.582V32.5379H60.938Z" fill="#3D3D3F"/>
<path d="M72.0622 32.5376V15.1128H69.0357V10.0833H72.0622V3.18811H77.7061V10.0833H80.8144V15.1128H77.7061V32.5376H72.0622Z" fill="#3D3D3F"/>
<path d="M67.4854 3.70615C67.4854 5.75321 65.8121 7.41266 63.748 7.41266C61.684 7.41266 60.0107 5.75321 60.0107 3.70615C60.0107 1.6591 61.684 -0.000366211 63.748 -0.000366211C65.8121 -0.000366211 67.4854 1.6591 67.4854 3.70615Z" fill="#3D3D3F"/>
<path d="M93.5032 9.40637C86.2326 9.40637 81.5457 14.927 81.5457 21.4578C81.5457 28.2067 86.2481 33.1745 93.6208 33.1745C100.498 33.1745 103.881 28.9158 103.881 28.9158L100.108 25.1691C100.108 25.1691 97.2596 28.2162 93.6923 28.2162C90.7186 28.2162 88.3411 26.5702 87.5114 23.5517H105.098V22.0104C105.098 15.8605 101.508 9.40637 93.5032 9.40637ZM93.3241 14.3344C95.9241 14.3344 98.5831 15.7139 99.1777 19.009H87.3581C87.8264 16.6927 89.8695 14.3344 93.3241 14.3344Z" fill="#3D3D3F"/>
<path d="M119.215 33.1775C111.924 33.1775 106.956 27.6702 106.956 21.1768C106.956 14.4755 112.571 9.4021 119.192 9.4021C125.592 9.4021 128.868 13.8832 128.868 13.8832L124.931 17.7701C124.931 17.7701 122.651 14.8477 119.165 14.8477C115.302 14.8477 112.66 17.7787 112.66 21.2627C112.66 24.9414 115.47 27.7638 119.121 27.7638C122.663 27.7638 124.926 24.8462 124.926 24.8462L128.902 28.731C128.902 28.731 125.658 33.1775 119.215 33.1775Z" fill="#3D3D3F"/>
<path d="M130.956 32.5539V0.592407H136.6V12.3352C136.6 12.3352 138.761 9.40196 143.461 9.40196C149.371 9.40196 152.795 13.7589 152.795 19.3312V32.5539H147.151V20.1772C147.151 16.4336 144.801 14.8804 142.197 14.8804C139.231 14.8804 136.6 16.5546 136.6 20.4669V32.5539H130.956Z" fill="#3D3D3F"/>
</svg>
