<svg width="189" height="40" viewBox="0 0 189 40" fill="none" xmlns="http://www.w3.org/2000/svg">
<path d="M46.264 31C46.0507 31 45.8693 30.9253 45.72 30.776C45.5707 30.6267 45.496 30.4453 45.496 30.232V9.4C45.496 9.16533 45.56 8.97333 45.688 8.824C45.8373 8.67467 46.0293 8.6 46.264 8.6H54.84C57.4 8.6 59.416 9.208 60.888 10.424C62.36 11.6187 63.096 13.3787 63.096 15.704C63.096 18.0293 62.36 19.7893 60.888 20.984C59.4373 22.1573 57.4213 22.744 54.84 22.744H50.072V30.232C50.072 30.4453 49.9973 30.6267 49.848 30.776C49.72 30.9253 49.5387 31 49.304 31H46.264ZM54.68 19.192C55.9173 19.192 56.8667 18.904 57.528 18.328C58.1893 17.7307 58.52 16.856 58.52 15.704C58.52 14.5947 58.2 13.7307 57.56 13.112C56.92 12.472 55.96 12.152 54.68 12.152H50.008V19.192H54.68ZM67.4738 31C67.2604 31 67.0791 30.9253 66.9298 30.776C66.7804 30.6267 66.7057 30.4453 66.7057 30.232V15.16C66.7057 14.9467 66.7804 14.7653 66.9298 14.616C67.0791 14.4453 67.2604 14.36 67.4738 14.36H70.0658C70.3004 14.36 70.4924 14.4347 70.6418 14.584C70.7911 14.7333 70.8658 14.9253 70.8658 15.16V16.472C71.3778 15.7893 72.0178 15.2667 72.7858 14.904C73.5751 14.5413 74.4711 14.36 75.4738 14.36H76.7858C77.0204 14.36 77.2018 14.4347 77.3298 14.584C77.4791 14.712 77.5538 14.8933 77.5538 15.128V17.432C77.5538 17.6453 77.4791 17.8267 77.3298 17.976C77.2018 18.1253 77.0204 18.2 76.7858 18.2H74.2898C73.2871 18.2 72.4978 18.488 71.9218 19.064C71.3458 19.64 71.0578 20.4293 71.0578 21.432V30.232C71.0578 30.4453 70.9831 30.6267 70.8338 30.776C70.6844 30.9253 70.4924 31 70.2578 31H67.4738ZM87.6908 31.32C85.1948 31.32 83.2641 30.68 81.8988 29.4C80.5334 28.0987 79.7974 26.328 79.6908 24.088L79.6588 22.68L79.6908 21.272C79.7974 19.0533 80.5441 17.2933 81.9308 15.992C83.3174 14.6907 85.2374 14.04 87.6908 14.04C90.1441 14.04 92.0641 14.6907 93.4508 15.992C94.8374 17.2933 95.5841 19.0533 95.6908 21.272C95.7121 21.528 95.7228 21.9973 95.7228 22.68C95.7228 23.3627 95.7121 23.832 95.6908 24.088C95.5841 26.328 94.8481 28.0987 93.4828 29.4C92.1174 30.68 90.1868 31.32 87.6908 31.32ZM87.6908 28.152C88.8214 28.152 89.6961 27.8 90.3148 27.096C90.9334 26.3707 91.2748 25.3147 91.3388 23.928C91.3601 23.7147 91.3708 23.2987 91.3708 22.68C91.3708 22.0613 91.3601 21.6453 91.3388 21.432C91.2748 20.0453 90.9334 19 90.3148 18.296C89.6961 17.5707 88.8214 17.208 87.6908 17.208C86.5601 17.208 85.6854 17.5707 85.0668 18.296C84.4481 19 84.1068 20.0453 84.0428 21.432L84.0108 22.68L84.0428 23.928C84.1068 25.3147 84.4481 26.3707 85.0668 27.096C85.6854 27.8 86.5601 28.152 87.6908 28.152ZM98.5643 31C98.3723 31 98.2016 30.936 98.0523 30.808C97.9243 30.6587 97.8603 30.488 97.8603 30.296C97.8603 30.104 97.9349 29.9227 98.0843 29.752L103.524 22.456L98.4683 15.608C98.3403 15.4373 98.2763 15.256 98.2763 15.064C98.2763 14.872 98.3403 14.712 98.4683 14.584C98.6176 14.4347 98.7883 14.36 98.9803 14.36H101.764C101.978 14.36 102.138 14.4133 102.244 14.52C102.372 14.6053 102.5 14.7333 102.628 14.904L106.244 19.704L109.86 14.904C109.882 14.8827 109.967 14.7867 110.116 14.616C110.244 14.4453 110.447 14.36 110.724 14.36H113.38C113.572 14.36 113.732 14.4347 113.86 14.584C114.01 14.712 114.084 14.8613 114.084 15.032C114.084 15.2453 114.02 15.4373 113.892 15.608L108.772 22.52L114.244 29.752C114.394 29.9227 114.468 30.104 114.468 30.296C114.468 30.488 114.394 30.6587 114.244 30.808C114.116 30.936 113.956 31 113.764 31H110.852C110.511 31 110.223 30.8293 109.988 30.488L106.148 25.4L102.244 30.488C102.01 30.8293 101.722 31 101.38 31H98.5643ZM120.839 37.08C120.668 37.08 120.519 37.016 120.391 36.888C120.263 36.76 120.199 36.6107 120.199 36.44C120.199 36.248 120.241 36.0773 120.327 35.928L122.823 30.008L116.679 15.512C116.593 15.32 116.551 15.1707 116.551 15.064C116.572 14.872 116.647 14.712 116.775 14.584C116.903 14.4347 117.063 14.36 117.255 14.36H119.847C120.252 14.36 120.54 14.5627 120.711 14.968L124.967 25.432L129.351 14.968C129.521 14.5627 129.809 14.36 130.215 14.36H132.775C132.945 14.36 133.095 14.424 133.223 14.552C133.372 14.68 133.447 14.8293 133.447 15C133.447 15.1493 133.404 15.32 133.319 15.512L124.263 36.472C124.071 36.8773 123.772 37.08 123.367 37.08H120.839ZM137.506 31C137.292 31 137.111 30.9253 136.962 30.776C136.812 30.6267 136.738 30.4453 136.738 30.232V9.048C136.738 8.81333 136.812 8.632 136.962 8.504C137.111 8.35467 137.292 8.28 137.506 8.28H140.162C140.396 8.28 140.578 8.35467 140.706 8.504C140.855 8.632 140.93 8.81333 140.93 9.048V30.232C140.93 30.4453 140.855 30.6267 140.706 30.776C140.578 30.9253 140.396 31 140.162 31H137.506ZM150.507 31.32C149.419 31.32 148.416 31.1067 147.499 30.68C146.603 30.232 145.888 29.6347 145.355 28.888C144.843 28.1413 144.587 27.32 144.587 26.424C144.587 24.9733 145.173 23.8 146.347 22.904C147.52 22.008 149.131 21.4 151.179 21.08L155.563 20.44V19.768C155.563 18.8293 155.328 18.1253 154.859 17.656C154.389 17.1867 153.632 16.952 152.587 16.952C151.883 16.952 151.307 17.0907 150.859 17.368C150.432 17.624 150.091 17.88 149.835 18.136C149.579 18.4133 149.408 18.5947 149.323 18.68C149.237 18.936 149.077 19.064 148.843 19.064H146.379C146.187 19.064 146.016 19 145.867 18.872C145.739 18.744 145.674 18.5733 145.674 18.36C145.696 17.8267 145.952 17.2187 146.443 16.536C146.955 15.8533 147.733 15.2667 148.779 14.776C149.824 14.2853 151.104 14.04 152.619 14.04C155.136 14.04 156.971 14.6053 158.123 15.736C159.275 16.8667 159.851 18.3493 159.851 20.184V30.232C159.851 30.4453 159.776 30.6267 159.627 30.776C159.499 30.9253 159.317 31 159.083 31H156.491C156.277 31 156.096 30.9253 155.947 30.776C155.797 30.6267 155.723 30.4453 155.723 30.232V28.984C155.253 29.6667 154.581 30.232 153.707 30.68C152.853 31.1067 151.787 31.32 150.507 31.32ZM151.595 28.28C152.768 28.28 153.728 27.896 154.475 27.128C155.221 26.36 155.595 25.24 155.595 23.768V23.096L152.395 23.608C151.157 23.8 150.219 24.1093 149.579 24.536C148.96 24.9627 148.651 25.4853 148.651 26.104C148.651 26.7867 148.939 27.32 149.515 27.704C150.091 28.088 150.784 28.28 151.595 28.28ZM173.672 31.32C171.474 31.32 169.768 30.5627 168.552 29.048V30.232C168.552 30.4453 168.477 30.6267 168.328 30.776C168.2 30.9253 168.018 31 167.784 31H165.256C165.042 31 164.861 30.9253 164.712 30.776C164.562 30.6267 164.488 30.4453 164.488 30.232V9.048C164.488 8.81333 164.562 8.632 164.712 8.504C164.861 8.35467 165.042 8.28 165.256 8.28H167.976C168.21 8.28 168.392 8.35467 168.52 8.504C168.669 8.632 168.744 8.81333 168.744 9.048V16.152C169.96 14.744 171.602 14.04 173.672 14.04C175.826 14.04 177.48 14.744 178.632 16.152C179.784 17.56 180.402 19.384 180.488 21.624C180.509 21.88 180.52 22.2213 180.52 22.648C180.52 23.096 180.509 23.448 180.488 23.704C180.402 26.008 179.784 27.8533 178.632 29.24C177.48 30.6267 175.826 31.32 173.672 31.32ZM172.488 27.896C174.792 27.896 176.018 26.4773 176.168 23.64C176.189 23.4267 176.2 23.1067 176.2 22.68C176.2 22.2533 176.189 21.9333 176.168 21.72C176.018 18.8827 174.792 17.464 172.488 17.464C171.293 17.464 170.376 17.848 169.736 18.616C169.117 19.3627 168.786 20.2693 168.744 21.336L168.712 22.552L168.744 23.8C168.808 24.952 169.138 25.9227 169.736 26.712C170.333 27.5013 171.25 27.896 172.488 27.896Z" fill="#3D3D3F"/>
<path d="M31.5665 3.68945H27.2181C25.8764 3.68945 24.7887 4.74845 24.7887 6.05488V10.2886C24.7887 11.595 25.8764 12.6541 27.2181 12.6541H31.5665C32.9083 12.6541 33.996 11.595 33.996 10.2886V6.05488C33.996 4.74845 32.9083 3.68945 31.5665 3.68945Z" fill="#FD695A"/>
<path d="M14.5381 12.9064H18.3565C19.9366 12.9939 21.4396 13.6 22.6204 14.6259L22.7636 14.7809C23.8228 15.9272 24.4462 17.3926 24.5296 18.9324V22.6347C24.5296 23.2797 24.7928 23.8983 25.2612 24.3544C25.7297 24.8105 26.365 25.0667 27.0275 25.0667H31.4982C32.1607 25.0667 32.796 24.8105 33.2645 24.3544C33.7329 23.8983 33.9961 23.2797 33.9961 22.6347V18.2818C33.9961 17.6368 33.7329 17.0182 33.2645 16.5621C32.796 16.106 32.1607 15.8498 31.4982 15.8498H27.6957C26.1142 15.7685 24.6092 15.1615 23.4318 14.1303L23.2727 13.9908C22.2169 12.8425 21.594 11.3783 21.5067 9.83929V6.1215C21.5067 5.47652 21.2436 4.8579 20.7752 4.4018C20.3066 3.94571 19.6713 3.68945 19.0088 3.68945H14.5381C13.8756 3.68945 13.2403 3.94571 12.7719 4.4018C12.3035 4.8579 12.0403 5.47652 12.0403 6.1215V10.4745C12.0403 11.1194 12.3035 11.738 12.7719 12.1941C13.2403 12.6502 13.8756 12.9064 14.5381 12.9064Z" fill="#FD695A"/>
<path d="M32.2142 28.1472H28.4317C26.8572 28.0477 25.3653 27.4117 24.2079 26.3465L23.7824 25.9238C22.7332 24.765 22.1156 23.2837 22.033 21.7273V17.9693C22.0288 17.3186 21.7668 16.6957 21.3037 16.2355C20.8405 15.7753 20.2135 15.515 19.5586 15.511H15.7761C14.2145 15.4456 12.7231 14.8485 11.5523 13.8199L11.1268 13.3971C10.0775 12.2384 9.46007 10.7571 9.37735 9.20065V5.45839C9.37735 4.80638 9.11664 4.18106 8.65266 3.72C8.18862 3.25901 7.55926 3 6.90299 3H2.47429C1.81809 3 1.18867 3.25901 0.724694 3.72C0.260647 4.18106 -6.10352e-05 4.80638 -6.10352e-05 5.45839V9.85832C-6.10352e-05 10.5103 0.260647 11.1356 0.724694 11.5966C1.18867 12.0577 1.81809 12.3167 2.47429 12.3167H6.24106C7.83158 12.389 9.34725 13.009 10.5279 14.0704L10.9534 14.4932C11.9994 15.654 12.6163 17.134 12.7028 18.6895V22.4476C12.7069 23.0983 12.969 23.7212 13.4321 24.1813C13.8952 24.6415 14.5222 24.9018 15.1772 24.9059H18.9597C20.509 25.0023 21.9803 25.6145 23.1362 26.644L23.5617 27.0668C24.6077 28.2275 25.2246 29.7076 25.3111 31.2632V35.0212C25.3152 35.6719 25.5773 36.2948 26.0404 36.7549C26.5035 37.2151 27.1306 37.4754 27.7855 37.4795H32.2299C32.8849 37.4754 33.5119 37.2151 33.975 36.7549C34.4382 36.2948 34.7002 35.6719 34.7043 35.0212V30.6055C34.7001 29.9521 34.436 29.3268 33.9694 28.8662C33.5029 28.4057 32.8719 28.1471 32.2142 28.1472Z" fill="#FD695A"/>
<path d="M7.29911 27.8252H2.61629C1.17132 27.8252 -6.10352e-05 28.8843 -6.10352e-05 30.1907V34.4244C-6.10352e-05 35.7309 1.17132 36.7899 2.61629 36.7899H7.29911C8.74408 36.7899 9.91546 35.7309 9.91546 34.4244V30.1907C9.91546 28.8843 8.74408 27.8252 7.29911 27.8252Z" fill="#FD695A"/>
<path d="M19.4579 27.5731H15.6554C14.0739 27.4918 12.5689 26.8849 11.3915 25.8536L11.2324 25.7142C10.1698 24.5577 9.54655 23.0815 9.46638 21.5317V17.8139C9.45852 17.1875 9.2027 16.5882 8.75218 16.1408C8.30166 15.6936 7.69121 15.4328 7.04805 15.4128H2.49781C1.83531 15.4128 1.2 15.6691 0.731562 16.1252C0.263124 16.5813 -6.10352e-05 17.1998 -6.10352e-05 17.8449V22.1978C-6.10352e-05 22.8428 0.263124 23.4614 0.731562 23.9175C1.2 24.3736 1.83531 24.6298 2.49781 24.6298H6.31621C7.89625 24.7173 9.39931 25.3233 10.5801 26.3493L10.7233 26.5042C11.7825 27.6506 12.4058 29.1159 12.4893 30.6557V34.358C12.4893 34.6787 12.5544 34.9962 12.6809 35.2922C12.8075 35.5884 12.9929 35.8572 13.2266 36.0832C13.4601 36.3092 13.7374 36.4881 14.0423 36.6094C14.3472 36.7307 14.6737 36.7921 15.0031 36.79H19.4579C20.1204 36.79 20.7557 36.5338 21.2242 36.0778C21.6926 35.6217 21.9558 35.003 21.9558 34.358V30.0051C21.9558 29.3601 21.6926 28.7415 21.2242 28.2854C20.7557 27.8293 20.1204 27.5731 19.4579 27.5731Z" fill="#FD695A"/>
</svg>
