<svg width="72" height="72" viewBox="0 0 72 72" fill="none" xmlns="http://www.w3.org/2000/svg">
<circle cx="35.5192" cy="36.4506" r="35.5193" fill="#7879F1" fill-opacity="0.06"/>
<g clip-path="url(#clip0_2_265)">
<path d="M51.8864 54.9312H16.1132C15.4984 54.9312 14.9999 54.4328 14.9999 53.818C14.9999 53.2032 15.4984 52.7047 16.1132 52.7047H51.8864C52.5012 52.7047 52.9996 53.2032 52.9996 53.818C52.9996 54.4328 52.5012 54.9312 51.8864 54.9312Z" fill="#7879F1"/>
<path d="M22.8669 54.9313H18.4138C17.799 54.9313 17.3005 54.4329 17.3005 53.818V45.654C17.3005 44.6309 18.1329 43.7986 19.156 43.7986H22.1247C23.1478 43.7986 23.9801 44.6309 23.9801 45.654V53.818C23.9801 54.4329 23.4817 54.9313 22.8669 54.9313ZM19.5271 52.7048H21.7536V46.0251H19.5271V52.7048ZM22.1247 46.0251H22.1254H22.1247Z" fill="#7879F1"/>
<path d="M31.7731 54.9313H27.32C26.7051 54.9313 26.2067 54.4328 26.2067 53.818V42.9822C26.2067 41.9591 27.0391 41.1267 28.0622 41.1267H31.0309C32.054 41.1267 32.8863 41.9591 32.8863 42.9822V53.818C32.8863 54.4328 32.3879 54.9313 31.7731 54.9313ZM28.4332 52.7047H30.6598V43.3533H28.4332V52.7047ZM31.0309 43.3533H31.0316H31.0309Z" fill="#7879F1"/>
<path d="M40.6792 54.9313H36.2262C35.6113 54.9313 35.1129 54.4328 35.1129 53.818V38.9001C35.1129 37.877 35.9452 37.0447 36.9683 37.0447H39.9371C40.9602 37.0447 41.7925 37.877 41.7925 38.9001V53.818C41.7925 54.4328 41.2941 54.9313 40.6792 54.9313ZM37.3394 52.7047H39.566V39.2712H37.3394V52.7047ZM39.9371 39.2712H39.9378H39.9371Z" fill="#7879F1"/>
<path d="M49.5854 54.9313H45.1323C44.5175 54.9313 44.0191 54.4329 44.0191 53.8181V31.4784C44.0191 30.4553 44.8514 29.6229 45.8745 29.6229H48.8433C49.8664 29.6229 50.6987 30.4553 50.6987 31.4784V53.8181C50.6987 54.4329 50.2003 54.9313 49.5854 54.9313ZM46.2456 52.7048H48.4722V31.8495H46.2456V52.7048ZM48.8433 31.8495H48.844H48.8433Z" fill="#7879F1"/>
<path d="M16.1132 40.8527C15.4984 40.8527 14.9999 40.3543 14.9999 39.7395C14.9999 39.1246 15.4984 38.6262 16.1132 38.6262C22.6597 38.6262 29.7875 36.2423 36.1834 31.9137C42.0675 27.9315 46.7561 22.711 49.0471 17.5908C49.2982 17.0295 49.9568 16.7781 50.5179 17.0293C51.0792 17.2804 51.3306 17.9389 51.0794 18.5002C48.6238 23.9884 43.6493 29.5495 37.4313 33.7576C30.6709 38.333 23.0999 40.8527 16.1132 40.8527Z" fill="#7879F1"/>
<path d="M51.8854 25.9619C51.3938 25.9619 50.944 25.6339 50.8108 25.1365L49.2759 19.4082L43.5477 20.9431C42.9536 21.1024 42.3433 20.7499 42.1842 20.156C42.0251 19.5621 42.3775 18.9516 42.9714 18.7925L49.775 16.9695C50.3691 16.8103 50.9793 17.1628 51.1384 17.7567L52.9614 24.5602C53.1206 25.1541 52.7682 25.7646 52.1743 25.9237C52.0777 25.9495 51.9808 25.9619 51.8854 25.9619Z" fill="#7879F1"/>
</g>
<defs>
<clipPath id="clip0_2_265">
<rect width="38" height="38" fill="white" transform="translate(14.9999 16.9313)"/>
</clipPath>
</defs>
</svg>
