<svg width="158" height="40" viewBox="0 0 158 40" fill="none" xmlns="http://www.w3.org/2000/svg">
<path d="M50.5742 31.338L52.5401 26.8026C54.6643 28.3774 57.4865 29.1963 60.2768 29.1963C62.3378 29.1963 63.6379 28.4088 63.6379 27.2121C63.606 23.8735 51.3033 26.4876 51.2082 18.1097C51.1766 13.8577 54.9814 10.5821 60.3719 10.5821C63.5744 10.5821 66.7769 11.3695 69.0599 13.1648L67.2207 17.7947C65.1281 16.4719 62.528 15.527 60.0548 15.527C58.3741 15.527 57.2645 16.3144 57.2645 17.3223C57.2961 20.5979 69.6939 18.8026 69.8209 26.8026C69.8209 31.1491 66.1111 34.2041 60.7841 34.2041C56.8839 34.2041 53.301 33.2908 50.5742 31.338ZM126.007 25.1648C125.024 26.8656 123.185 28.031 121.061 28.031C117.922 28.031 115.385 25.5113 115.385 22.3932C115.385 19.2751 117.922 16.7554 121.061 16.7554C123.185 16.7554 125.024 17.9207 126.007 19.6215L131.429 16.6294C129.4 13.0388 125.5 10.5821 121.061 10.5821C114.497 10.5821 109.17 15.8735 109.17 22.3932C109.17 28.913 114.497 34.2041 121.061 34.2041C125.532 34.2041 129.4 31.7791 131.429 28.1569L126.007 25.1648ZM72.5477 0.786865H79.3333V33.7633H72.5477V0.786865ZM134.093 0.786865V33.7633H140.878V23.8735L148.932 33.7633H157.62L147.378 22.0152L156.859 11.0546H148.552L140.878 20.157V0.786865H134.093ZM99.4994 25.2278C98.5164 26.8341 96.4871 28.031 94.204 28.031C91.065 28.031 88.5283 25.5113 88.5283 22.3932C88.5283 19.2751 91.065 16.7554 94.204 16.7554C96.4871 16.7554 98.5164 18.0152 99.4994 19.653V25.2278ZM99.4994 11.0546V13.7318C98.3895 11.8735 95.6311 10.5821 92.7457 10.5821C86.7845 10.5821 82.0917 15.8105 82.0917 22.3617C82.0917 28.913 86.7845 34.2041 92.7457 34.2041C95.6311 34.2041 98.3895 32.913 99.4994 31.0546V33.7319H106.285V11.0546H99.4994Z" fill="#3D3D3F"/>
<path d="M8.62455 25.1961C8.62455 27.4953 6.75378 29.3535 4.43912 29.3535C2.12443 29.3535 0.253662 27.4953 0.253662 25.1961C0.253662 22.8969 2.12443 21.0386 4.43912 21.0386H8.62455V25.1961ZM10.7173 25.1961C10.7173 22.8969 12.588 21.0386 14.9027 21.0386C17.2174 21.0386 19.0882 22.8969 19.0882 25.1961V35.5896C19.0882 37.8891 17.2174 39.7471 14.9027 39.7471C12.588 39.7471 10.7173 37.8891 10.7173 35.5896V25.1961Z" fill="#E01E5A"/>
<path d="M14.9027 8.50342C12.5881 8.50342 10.7173 6.64517 10.7173 4.34595C10.7173 2.04674 12.5881 0.188477 14.9027 0.188477C17.2174 0.188477 19.0882 2.04674 19.0882 4.34595V8.50342H14.9027ZM14.9027 10.6137C17.2174 10.6137 19.0882 12.472 19.0882 14.7711C19.0882 17.0704 17.2174 18.9286 14.9027 18.9286H4.40743C2.09275 18.9286 0.221985 17.0704 0.221985 14.7711C0.221985 12.472 2.09275 10.6137 4.40743 10.6137H14.9027Z" fill="#36C5F0"/>
<path d="M31.6763 14.7711C31.6763 12.472 33.5471 10.6137 35.8618 10.6137C38.1764 10.6137 40.0472 12.472 40.0472 14.7711C40.0472 17.0704 38.1764 18.9286 35.8618 18.9286H31.6763V14.7711ZM29.5834 14.7711C29.5834 17.0704 27.7128 18.9286 25.3981 18.9286C23.0834 18.9286 21.2126 17.0704 21.2126 14.7711V4.34595C21.2126 2.04674 23.0834 0.188477 25.3981 0.188477C27.7128 0.188477 29.5834 2.04674 29.5834 4.34595V14.7711Z" fill="#2EB67D"/>
<path d="M25.3981 31.4324C27.7128 31.4324 29.5834 33.2905 29.5834 35.5896C29.5834 37.8891 27.7128 39.7471 25.3981 39.7471C23.0834 39.7471 21.2126 37.8891 21.2126 35.5896V31.4324H25.3981ZM25.3981 29.3535C23.0834 29.3535 21.2126 27.4953 21.2126 25.1961C21.2126 22.8969 23.0834 21.0386 25.3981 21.0386H35.8934C38.208 21.0386 40.0788 22.8969 40.0788 25.1961C40.0788 27.4953 38.208 29.3535 35.8934 29.3535H25.3981Z" fill="#ECB22E"/>
</svg>
