<svg width="155" height="46" viewBox="0 0 155 46" fill="none" xmlns="http://www.w3.org/2000/svg">
<path d="M23.2497 0.0758057C10.4486 0.0758057 0.0708466 10.3417 0.0708466 23.0052C0.0708466 35.6692 10.4486 45.9342 23.2497 45.9342C36.0522 45.9342 46.4288 35.6692 46.4288 23.0052C46.4288 10.3426 36.0522 0.076901 23.2494 0.076901L23.2497 0.0758057ZM33.8793 33.1465C33.4644 33.8202 32.5731 34.0336 31.8921 33.6203C26.4499 30.3318 19.5989 29.587 11.5306 31.4106C10.7531 31.5858 9.97812 31.1039 9.80097 30.3345C9.62301 29.5651 10.1082 28.7984 10.8876 28.6232C19.7171 26.6277 27.2908 27.4869 33.4004 31.1806C34.0815 31.594 34.2975 32.4728 33.8793 33.1465ZM36.7165 26.9031C36.1933 27.7443 35.0806 28.0099 34.231 27.4924C28.0005 23.7039 18.5031 22.6068 11.1337 24.8197C10.1779 25.1053 9.16851 24.5724 8.87843 23.6286C8.59058 22.6832 9.1295 21.6865 10.0836 21.399C18.5014 18.8723 28.9664 20.0962 36.1213 24.4457C36.9712 24.9632 37.2396 26.0639 36.7165 26.9034V26.9031ZM36.9599 20.4018C29.4896 16.0124 17.1643 15.6087 10.0318 17.7502C8.88647 18.0939 7.67524 17.4542 7.32817 16.3212C6.98107 15.1876 7.6271 13.9903 8.77326 13.6458C16.9609 11.187 30.5718 11.6621 39.1726 16.713C40.2049 17.3179 40.5427 18.6341 39.9311 19.6518C39.3221 20.6709 37.9881 21.0069 36.9612 20.4018H36.9599ZM63.133 21.2429C59.1304 20.2988 58.419 19.6362 58.419 18.2439C58.419 16.9285 59.6703 16.0433 61.5329 16.0433C63.3377 16.0433 65.1257 16.7155 67.0022 18.0993C67.0577 18.1412 67.1297 18.1579 67.1988 18.1469C67.2708 18.1366 67.3315 18.0985 67.3732 18.0413L69.3272 15.3163C69.4076 15.2041 69.3853 15.0494 69.2774 14.9636C67.0438 13.1913 64.5306 12.3296 61.5911 12.3296C57.2704 12.3296 54.2508 14.8949 54.2508 18.5654C54.2508 22.5014 56.8555 23.895 61.356 24.9709C65.1838 25.8435 65.8316 26.5745 65.8316 27.8812C65.8316 29.3296 64.5251 30.2304 62.4216 30.2304C60.0853 30.2304 58.1785 29.4501 56.0472 27.6265C55.9946 27.58 55.9226 27.5608 55.8561 27.5635C55.7844 27.569 55.7204 27.6019 55.6762 27.6539L53.4842 30.2332C53.3928 30.3427 53.4038 30.5015 53.5091 30.5946C55.9891 32.7852 59.039 33.9407 62.3328 33.9407C66.9886 33.9407 69.9972 31.4243 69.9972 27.5279C70.0053 24.2403 68.0155 22.4195 63.1411 21.2465L63.133 21.2429ZM80.5317 17.3384C78.5138 17.3384 76.8586 18.1248 75.4913 19.7361V17.9224C75.4913 17.7792 75.3751 17.6626 75.2311 17.6626H71.6467C71.503 17.6626 71.3867 17.7792 71.3867 17.9224V38.0752C71.3867 38.2174 71.503 38.3353 71.6467 38.3353H75.2311C75.3751 38.3353 75.4913 38.2174 75.4913 38.0752V31.7145C76.8586 33.2286 78.5138 33.9707 80.5317 33.9707C84.2821 33.9707 88.0796 31.1149 88.0796 25.6554C88.0851 20.1948 84.2876 17.3381 80.5343 17.3381L80.5317 17.3384ZM83.9111 25.6554C83.9111 28.4343 82.1812 30.3756 79.7012 30.3756C77.2519 30.3756 75.4028 28.3466 75.4028 25.6554C75.4028 22.9638 77.2519 20.9354 79.7012 20.9354C82.1399 20.9352 83.9111 22.9197 83.9111 25.6551V25.6554ZM97.8084 17.3384C92.9786 17.3384 89.1949 21.0173 89.1949 25.7148C89.1949 30.3619 92.9537 34.0007 97.7503 34.0007C102.597 34.0007 106.392 30.3345 106.392 25.6554C106.392 20.9921 102.622 17.3389 97.8084 17.3389V17.3384ZM97.8084 30.4029C95.2399 30.4029 93.3024 28.3603 93.3024 25.654C93.3024 22.9354 95.1737 20.9625 97.7503 20.9625C100.336 20.9625 102.284 23.0044 102.284 25.7134C102.284 28.4315 100.402 30.4029 97.8084 30.4029ZM116.705 17.6626H112.76V13.6743C112.76 13.5314 112.644 13.4147 112.5 13.4147H108.916C108.772 13.4147 108.653 13.5314 108.653 13.6743V17.6626H106.931C106.787 17.6626 106.671 17.7792 106.671 17.9224V20.9691C106.671 21.1121 106.787 21.2289 106.931 21.2289H108.653V29.1133C108.653 32.2978 110.256 33.9132 113.419 33.9132C114.703 33.9132 115.769 33.6503 116.774 33.0861C116.857 33.0424 116.907 32.9549 116.907 32.8619V29.9594C116.907 29.8718 116.86 29.7869 116.782 29.7403C116.705 29.691 116.608 29.6883 116.528 29.7294C115.838 30.0716 115.171 30.2304 114.424 30.2304C113.275 30.2304 112.76 29.7129 112.76 28.5575V21.2303H116.705C116.849 21.2303 116.965 21.1137 116.965 20.9705V17.9241C116.97 17.7809 116.854 17.6642 116.707 17.6642L116.705 17.6626ZM130.444 17.6782V17.1884C130.444 15.7473 131.004 15.1047 132.255 15.1047C133.002 15.1047 133.602 15.2514 134.275 15.4732C134.358 15.4989 134.444 15.4861 134.51 15.4371C134.58 15.3881 134.618 15.3095 134.618 15.2262V12.239C134.618 12.1248 134.546 12.0238 134.433 11.9901C133.724 11.7812 132.816 11.5668 131.455 11.5668C128.147 11.5668 126.395 13.4106 126.395 16.897V17.6473H124.673C124.529 17.6473 124.41 17.7639 124.41 17.9068V20.9691C124.41 21.1121 124.529 21.2289 124.673 21.2289H126.395V33.3874C126.395 33.5327 126.514 33.6477 126.658 33.6477H130.24C130.386 33.6477 130.502 33.5327 130.502 33.3874V21.2298H133.849L138.975 33.3874C138.394 34.6636 137.821 34.9182 137.04 34.9182C136.409 34.9182 135.742 34.7319 135.064 34.3623C135 34.3294 134.923 34.324 134.856 34.3432C134.787 34.3678 134.729 34.417 134.701 34.4828L133.486 37.1195C133.428 37.2453 133.478 37.3907 133.6 37.4562C134.867 38.1353 136.01 38.4257 137.425 38.4257C140.071 38.4257 141.535 37.2044 142.822 33.9241L149.039 18.0331C149.072 17.9531 149.061 17.8627 149.011 17.7918C148.964 17.7214 148.884 17.679 148.798 17.679H145.067C144.954 17.679 144.854 17.7494 144.818 17.8532L140.995 28.6506L136.81 17.8461C136.772 17.7456 136.675 17.679 136.567 17.679H130.444V17.6782ZM122.479 17.6626H118.894C118.75 17.6626 118.631 17.7792 118.631 17.9224V33.3874C118.631 33.5327 118.75 33.6477 118.894 33.6477H122.479C122.622 33.6477 122.741 33.5327 122.741 33.3874V17.9235C122.741 17.7803 122.625 17.6637 122.479 17.6637V17.6626ZM120.707 10.6205C119.287 10.6205 118.136 11.7574 118.136 13.1617C118.136 14.5669 119.287 15.7051 120.707 15.7051C122.127 15.7051 123.276 14.5669 123.276 13.1617C123.276 11.7576 122.124 10.6205 120.707 10.6205ZM152.1 22.6352C150.683 22.6352 149.578 21.5085 149.578 20.1403C149.578 18.7721 150.697 17.6325 152.114 17.6325C153.531 17.6325 154.635 18.7589 154.635 20.1261C154.635 21.4943 153.517 22.6352 152.1 22.6352ZM152.114 17.8805C150.821 17.8805 149.844 18.8964 149.844 20.1403C149.844 21.3837 150.816 22.3858 152.1 22.3858C153.393 22.3858 154.37 21.3708 154.37 20.1261C154.37 18.8827 153.398 17.8805 152.114 17.8805ZM152.673 20.3826L153.387 21.3705H152.784L152.142 20.4642H151.591V21.3705H151.087V18.7518H152.266C152.883 18.7518 153.287 19.0631 153.287 19.5872C153.29 20.0165 153.038 20.2789 152.676 20.3826H152.673ZM152.247 19.2011H151.591V20.0294H152.247C152.573 20.0294 152.77 19.8709 152.77 19.6149C152.77 19.3454 152.573 19.2011 152.247 19.2011Z" fill="#1ED760"/>
</svg>
