<svg width="72" height="73" viewBox="0 0 72 73" fill="none" xmlns="http://www.w3.org/2000/svg">
<circle cx="35.9723" cy="36.5116" r="35.5193" fill="#BC5C56" fill-opacity="0.06"/>
<path d="M55.9413 36.0181C55.9404 35.6124 55.7297 35.236 55.3843 35.0231L51.3192 32.5171L55.3886 29.9842C55.7318 29.7707 55.9406 29.3953 55.9413 28.9911C55.9419 28.5869 55.7342 28.2109 55.3916 27.9963L36.5635 16.1995C36.183 15.961 35.6996 15.961 35.3191 16.1995L16.491 27.9963C16.1485 28.2109 15.9408 28.5869 15.9413 28.9911C15.942 29.3953 16.1508 29.7707 16.494 29.9842L20.5355 32.4997L16.4922 35.027C16.1492 35.2413 15.941 35.6173 15.9414 36.0218C15.9418 36.4263 16.1507 36.8019 16.4941 37.0156L20.5356 39.5311L16.4922 42.0582C16.1498 42.2722 15.9417 42.6475 15.9414 43.0513C15.9412 43.4551 16.1489 43.8306 16.4911 44.045L35.3192 55.8418C35.5095 55.961 35.7254 56.0206 35.9413 56.0206C36.1573 56.0206 36.3733 55.961 36.5635 55.8418L55.3916 44.045C55.7349 43.8299 55.9428 43.4527 55.9413 43.0476C55.9398 42.6426 55.7292 42.2669 55.3843 42.0544L51.3192 39.5484L55.3886 37.0155C55.7331 36.8012 55.9421 36.4238 55.9413 36.0181ZM19.3257 28.9862L35.9413 18.5755L52.557 28.9862C52.3973 29.0856 36.4175 39.0315 35.9413 39.3279L19.3257 28.9862ZM52.5493 43.0601L35.9413 53.4659L19.3224 43.0532L22.7512 40.9101L35.3221 48.7343C35.5117 48.8523 35.7265 48.9113 35.9413 48.9113C36.1562 48.9113 36.371 48.8523 36.5606 48.7343L49.0968 40.9317L52.5493 43.0601ZM35.9413 46.3591L19.3277 36.0187L22.7512 33.8789L35.3221 41.7031C35.5117 41.8211 35.7265 41.8801 35.9413 41.8801C36.1562 41.8801 36.371 41.8211 36.5606 41.7031L49.0968 33.9005L52.544 36.0255C52.4488 36.0848 36.3812 46.0853 35.9413 46.3591Z" fill="#FD695A" stroke="#FD695A" stroke-width="0.5"/>
</svg>
